<svg xmlns="http://www.w3.org/2000/svg" id="Layer_1" width="77" height="77" fill="#000" data-name="Layer 1" viewBox="0 0 64 64"><g id="SVGRepo_iconCarrier"><defs><style>.cls-1{fill:#f5dd90}.cls-2{fill:#f76c5e}.cls-3{fill:#6096ba}.cls-4{fill:#274c77}</style></defs><rect width="2" height="3" x="44" y="18" class="cls-3"/><rect width="2" height="5" x="44" y="11" class="cls-3"/><circle cx="45" cy="17" r="2" class="cls-1"/><path d="M34,41l-2,6-2-6V23c0-1.1,.9-2,2-2h0c1.1,0,2,.9,2,2v18Z" class="cls-4"/><path d="M34,25h-4v-2c0-1.1,.9-2,2-2,.55,0,1.05,.22,1.41,.59,.37,.36,.59,.86,.59,1.41v2Z" class="cls-2"/><polygon points="34 41 30 41 32 47 34 41" class="cls-2"/><path d="M60,61h-28v-2h28c.55,0,1-.45,1-1s-.45-1-1-1H4c-1.65,0-3-1.35-3-3s1.35-3,3-3H31v-2h2v2c0,1.1-.9,2-2,2H4c-.55,0-1,.45-1,1s.45,1,1,1H60c1.65,0,3,1.35,3,3s-1.35,3-3,3Z" class="cls-3"/><rect width="2" height="2" x="28" y="59" class="cls-2"/><rect width="2" height="2" x="24" y="59" class="cls-2"/><rect width="2" height="2" x="20" y="59" class="cls-2"/><rect width="2" height="2" x="16" y="59" class="cls-2"/><rect width="2" height="2" x="12" y="59" class="cls-2"/><rect width="2" height="2" x="8" y="59" class="cls-2"/><rect width="2" height="2" x="4" y="59" class="cls-2"/><path d="M24,12.87v2.13c0,2.21,1.79,4,4,4h8c2.21,0,4-1.79,4-4v-2.13l-8,2.13-8-2.13Z" class="cls-3"/><polygon points="32 15 17 11 32 3 47 11 32 15" class="cls-4"/></g></svg>